<mxfile host="Electron" modified="2024-06-07T08:59:05.011Z" agent="Mozilla/5.0 (Windows NT 10.0; Win64; x64) AppleWebKit/537.36 (KHTML, like Gecko) draw.io/23.1.5 Chrome/120.0.6099.109 Electron/28.1.0 Safari/537.36" etag="XEgXBEiNvPGpv7-Lh4bB" version="23.1.5" type="device">
  <diagram id="C5RBs43oDa-KdzZeNtuy" name="Page-1">
    <mxGraphModel dx="1098" dy="658" grid="1" gridSize="10" guides="1" tooltips="1" connect="1" arrows="1" fold="1" page="1" pageScale="1" pageWidth="827" pageHeight="1169" math="0" shadow="0">
      <root>
        <mxCell id="WIyWlLk6GJQsqaUBKTNV-0" />
        <mxCell id="WIyWlLk6GJQsqaUBKTNV-1" parent="WIyWlLk6GJQsqaUBKTNV-0" />
        <mxCell id="WIyWlLk6GJQsqaUBKTNV-2" value="" style="rounded=0;html=1;jettySize=auto;orthogonalLoop=1;fontSize=11;endArrow=block;endFill=0;endSize=8;strokeWidth=1;shadow=0;labelBackgroundColor=none;edgeStyle=orthogonalEdgeStyle;" parent="WIyWlLk6GJQsqaUBKTNV-1" edge="1">
          <mxGeometry relative="1" as="geometry">
            <mxPoint x="250" y="310" as="sourcePoint" />
            <mxPoint x="250" y="390" as="targetPoint" />
          </mxGeometry>
        </mxCell>
        <mxCell id="ZCOnZHZR5LrN24FwnGlQ-35" style="edgeStyle=orthogonalEdgeStyle;rounded=0;orthogonalLoop=1;jettySize=auto;html=1;" parent="WIyWlLk6GJQsqaUBKTNV-1" source="ZCOnZHZR5LrN24FwnGlQ-0" target="ZCOnZHZR5LrN24FwnGlQ-34" edge="1">
          <mxGeometry relative="1" as="geometry" />
        </mxCell>
        <mxCell id="ZCOnZHZR5LrN24FwnGlQ-0" value="RUN" style="ellipse;whiteSpace=wrap;html=1;aspect=fixed;" parent="WIyWlLk6GJQsqaUBKTNV-1" vertex="1">
          <mxGeometry x="220" y="50" width="80" height="80" as="geometry" />
        </mxCell>
        <mxCell id="ZCOnZHZR5LrN24FwnGlQ-3" style="edgeStyle=orthogonalEdgeStyle;rounded=0;orthogonalLoop=1;jettySize=auto;html=1;entryX=0.5;entryY=0;entryDx=0;entryDy=0;" parent="WIyWlLk6GJQsqaUBKTNV-1" edge="1">
          <mxGeometry relative="1" as="geometry">
            <mxPoint x="250" y="430" as="sourcePoint" />
            <mxPoint x="250" y="490" as="targetPoint" />
          </mxGeometry>
        </mxCell>
        <mxCell id="ZCOnZHZR5LrN24FwnGlQ-10" style="edgeStyle=orthogonalEdgeStyle;rounded=0;orthogonalLoop=1;jettySize=auto;html=1;entryX=0.5;entryY=0;entryDx=0;entryDy=0;" parent="WIyWlLk6GJQsqaUBKTNV-1" source="ZCOnZHZR5LrN24FwnGlQ-4" target="ZCOnZHZR5LrN24FwnGlQ-9" edge="1">
          <mxGeometry relative="1" as="geometry" />
        </mxCell>
        <mxCell id="ZCOnZHZR5LrN24FwnGlQ-4" value="RUN" style="rounded=1;whiteSpace=wrap;html=1;fontSize=12;glass=0;strokeWidth=1;shadow=0;" parent="WIyWlLk6GJQsqaUBKTNV-1" vertex="1">
          <mxGeometry x="190" y="600" width="120" height="70" as="geometry" />
        </mxCell>
        <mxCell id="ZCOnZHZR5LrN24FwnGlQ-5" value="Select the flight trajectory csv file" style="shape=parallelogram;perimeter=parallelogramPerimeter;whiteSpace=wrap;html=1;fixedSize=1;" parent="WIyWlLk6GJQsqaUBKTNV-1" vertex="1">
          <mxGeometry x="190" y="270" width="120" height="60" as="geometry" />
        </mxCell>
        <mxCell id="ZCOnZHZR5LrN24FwnGlQ-6" value="select COM port" style="shape=parallelogram;perimeter=parallelogramPerimeter;whiteSpace=wrap;html=1;fixedSize=1;" parent="WIyWlLk6GJQsqaUBKTNV-1" vertex="1">
          <mxGeometry x="190" y="390" width="120" height="60" as="geometry" />
        </mxCell>
        <mxCell id="ZCOnZHZR5LrN24FwnGlQ-8" style="edgeStyle=orthogonalEdgeStyle;rounded=0;orthogonalLoop=1;jettySize=auto;html=1;entryX=0.5;entryY=0;entryDx=0;entryDy=0;" parent="WIyWlLk6GJQsqaUBKTNV-1" source="ZCOnZHZR5LrN24FwnGlQ-7" target="ZCOnZHZR5LrN24FwnGlQ-4" edge="1">
          <mxGeometry relative="1" as="geometry" />
        </mxCell>
        <mxCell id="ZCOnZHZR5LrN24FwnGlQ-7" value="select time step" style="shape=parallelogram;perimeter=parallelogramPerimeter;whiteSpace=wrap;html=1;fixedSize=1;" parent="WIyWlLk6GJQsqaUBKTNV-1" vertex="1">
          <mxGeometry x="190" y="490" width="120" height="60" as="geometry" />
        </mxCell>
        <mxCell id="ZCOnZHZR5LrN24FwnGlQ-12" style="edgeStyle=orthogonalEdgeStyle;rounded=0;orthogonalLoop=1;jettySize=auto;html=1;" parent="WIyWlLk6GJQsqaUBKTNV-1" source="ZCOnZHZR5LrN24FwnGlQ-9" target="ZCOnZHZR5LrN24FwnGlQ-11" edge="1">
          <mxGeometry relative="1" as="geometry" />
        </mxCell>
        <mxCell id="ZCOnZHZR5LrN24FwnGlQ-14" style="edgeStyle=orthogonalEdgeStyle;rounded=0;orthogonalLoop=1;jettySize=auto;html=1;" parent="WIyWlLk6GJQsqaUBKTNV-1" source="ZCOnZHZR5LrN24FwnGlQ-9" edge="1">
          <mxGeometry relative="1" as="geometry">
            <mxPoint x="250" y="850" as="targetPoint" />
          </mxGeometry>
        </mxCell>
        <mxCell id="ZCOnZHZR5LrN24FwnGlQ-9" value="flight_file selected?" style="rhombus;whiteSpace=wrap;html=1;shadow=0;fontFamily=Helvetica;fontSize=12;align=center;strokeWidth=1;spacing=6;spacingTop=-4;" parent="WIyWlLk6GJQsqaUBKTNV-1" vertex="1">
          <mxGeometry x="200" y="710" width="100" height="80" as="geometry" />
        </mxCell>
        <mxCell id="ZCOnZHZR5LrN24FwnGlQ-11" value="MSG: Select flight_file" style="shape=parallelogram;perimeter=parallelogramPerimeter;whiteSpace=wrap;html=1;fixedSize=1;" parent="WIyWlLk6GJQsqaUBKTNV-1" vertex="1">
          <mxGeometry x="360" y="720" width="120" height="60" as="geometry" />
        </mxCell>
        <mxCell id="ZCOnZHZR5LrN24FwnGlQ-13" value="N" style="text;html=1;align=center;verticalAlign=middle;resizable=0;points=[];autosize=1;strokeColor=none;fillColor=none;" parent="WIyWlLk6GJQsqaUBKTNV-1" vertex="1">
          <mxGeometry x="320" y="720" width="30" height="30" as="geometry" />
        </mxCell>
        <mxCell id="ZCOnZHZR5LrN24FwnGlQ-15" value="Y" style="text;html=1;align=center;verticalAlign=middle;resizable=0;points=[];autosize=1;strokeColor=none;fillColor=none;" parent="WIyWlLk6GJQsqaUBKTNV-1" vertex="1">
          <mxGeometry x="210" y="795" width="30" height="30" as="geometry" />
        </mxCell>
        <mxCell id="ZCOnZHZR5LrN24FwnGlQ-22" style="edgeStyle=orthogonalEdgeStyle;rounded=0;orthogonalLoop=1;jettySize=auto;html=1;" parent="WIyWlLk6GJQsqaUBKTNV-1" source="ZCOnZHZR5LrN24FwnGlQ-24" target="ZCOnZHZR5LrN24FwnGlQ-25" edge="1">
          <mxGeometry relative="1" as="geometry" />
        </mxCell>
        <mxCell id="ZCOnZHZR5LrN24FwnGlQ-23" style="edgeStyle=orthogonalEdgeStyle;rounded=0;orthogonalLoop=1;jettySize=auto;html=1;" parent="WIyWlLk6GJQsqaUBKTNV-1" source="ZCOnZHZR5LrN24FwnGlQ-24" edge="1">
          <mxGeometry relative="1" as="geometry">
            <mxPoint x="250" y="990" as="targetPoint" />
          </mxGeometry>
        </mxCell>
        <mxCell id="ZCOnZHZR5LrN24FwnGlQ-24" value="COM Port Selected" style="rhombus;whiteSpace=wrap;html=1;shadow=0;fontFamily=Helvetica;fontSize=12;align=center;strokeWidth=1;spacing=6;spacingTop=-4;" parent="WIyWlLk6GJQsqaUBKTNV-1" vertex="1">
          <mxGeometry x="200" y="850" width="100" height="80" as="geometry" />
        </mxCell>
        <mxCell id="ZCOnZHZR5LrN24FwnGlQ-25" value="MSG: Select flight_file" style="shape=parallelogram;perimeter=parallelogramPerimeter;whiteSpace=wrap;html=1;fixedSize=1;" parent="WIyWlLk6GJQsqaUBKTNV-1" vertex="1">
          <mxGeometry x="360" y="860" width="120" height="60" as="geometry" />
        </mxCell>
        <mxCell id="ZCOnZHZR5LrN24FwnGlQ-26" value="N" style="text;html=1;align=center;verticalAlign=middle;resizable=0;points=[];autosize=1;strokeColor=none;fillColor=none;" parent="WIyWlLk6GJQsqaUBKTNV-1" vertex="1">
          <mxGeometry x="320" y="860" width="30" height="30" as="geometry" />
        </mxCell>
        <mxCell id="ZCOnZHZR5LrN24FwnGlQ-27" value="Y" style="text;html=1;align=center;verticalAlign=middle;resizable=0;points=[];autosize=1;strokeColor=none;fillColor=none;" parent="WIyWlLk6GJQsqaUBKTNV-1" vertex="1">
          <mxGeometry x="210" y="935" width="30" height="30" as="geometry" />
        </mxCell>
        <mxCell id="ZCOnZHZR5LrN24FwnGlQ-28" style="edgeStyle=orthogonalEdgeStyle;rounded=0;orthogonalLoop=1;jettySize=auto;html=1;" parent="WIyWlLk6GJQsqaUBKTNV-1" source="ZCOnZHZR5LrN24FwnGlQ-30" target="ZCOnZHZR5LrN24FwnGlQ-31" edge="1">
          <mxGeometry relative="1" as="geometry" />
        </mxCell>
        <mxCell id="ZCOnZHZR5LrN24FwnGlQ-29" style="edgeStyle=orthogonalEdgeStyle;rounded=0;orthogonalLoop=1;jettySize=auto;html=1;" parent="WIyWlLk6GJQsqaUBKTNV-1" source="ZCOnZHZR5LrN24FwnGlQ-30" edge="1">
          <mxGeometry relative="1" as="geometry">
            <mxPoint x="250" y="1100" as="targetPoint" />
          </mxGeometry>
        </mxCell>
        <mxCell id="ZCOnZHZR5LrN24FwnGlQ-30" value="Time step selected" style="rhombus;whiteSpace=wrap;html=1;shadow=0;fontFamily=Helvetica;fontSize=12;align=center;strokeWidth=1;spacing=6;spacingTop=-4;" parent="WIyWlLk6GJQsqaUBKTNV-1" vertex="1">
          <mxGeometry x="200" y="990" width="100" height="80" as="geometry" />
        </mxCell>
        <mxCell id="ZCOnZHZR5LrN24FwnGlQ-31" value="Set default time &lt;br&gt;step to 1 sec" style="shape=parallelogram;perimeter=parallelogramPerimeter;whiteSpace=wrap;html=1;fixedSize=1;" parent="WIyWlLk6GJQsqaUBKTNV-1" vertex="1">
          <mxGeometry x="360" y="1000" width="120" height="60" as="geometry" />
        </mxCell>
        <mxCell id="ZCOnZHZR5LrN24FwnGlQ-32" value="N" style="text;html=1;align=center;verticalAlign=middle;resizable=0;points=[];autosize=1;strokeColor=none;fillColor=none;" parent="WIyWlLk6GJQsqaUBKTNV-1" vertex="1">
          <mxGeometry x="320" y="1000" width="30" height="30" as="geometry" />
        </mxCell>
        <mxCell id="ZCOnZHZR5LrN24FwnGlQ-33" value="Y" style="text;html=1;align=center;verticalAlign=middle;resizable=0;points=[];autosize=1;strokeColor=none;fillColor=none;" parent="WIyWlLk6GJQsqaUBKTNV-1" vertex="1">
          <mxGeometry x="210" y="1075" width="30" height="30" as="geometry" />
        </mxCell>
        <mxCell id="ZCOnZHZR5LrN24FwnGlQ-34" value="Scan for available COM ports" style="rounded=0;whiteSpace=wrap;html=1;" parent="WIyWlLk6GJQsqaUBKTNV-1" vertex="1">
          <mxGeometry x="200" y="170" width="120" height="60" as="geometry" />
        </mxCell>
        <mxCell id="ZCOnZHZR5LrN24FwnGlQ-37" style="edgeStyle=orthogonalEdgeStyle;rounded=0;orthogonalLoop=1;jettySize=auto;html=1;entryX=0.583;entryY=0;entryDx=0;entryDy=0;entryPerimeter=0;" parent="WIyWlLk6GJQsqaUBKTNV-1" source="ZCOnZHZR5LrN24FwnGlQ-34" target="ZCOnZHZR5LrN24FwnGlQ-5" edge="1">
          <mxGeometry relative="1" as="geometry" />
        </mxCell>
        <mxCell id="ZCOnZHZR5LrN24FwnGlQ-40" value="" style="group" parent="WIyWlLk6GJQsqaUBKTNV-1" vertex="1" connectable="0">
          <mxGeometry x="230" y="1100" width="40" height="40" as="geometry" />
        </mxCell>
        <mxCell id="ZCOnZHZR5LrN24FwnGlQ-39" value="" style="ellipse;whiteSpace=wrap;html=1;aspect=fixed;" parent="ZCOnZHZR5LrN24FwnGlQ-40" vertex="1">
          <mxGeometry width="40" height="40" as="geometry" />
        </mxCell>
        <mxCell id="ZCOnZHZR5LrN24FwnGlQ-38" value="" style="ellipse;whiteSpace=wrap;html=1;aspect=fixed;" parent="ZCOnZHZR5LrN24FwnGlQ-40" vertex="1">
          <mxGeometry x="13.333333333333332" y="13.333333333333332" width="13.333333333333332" height="13.333333333333332" as="geometry" />
        </mxCell>
        <mxCell id="ZCOnZHZR5LrN24FwnGlQ-43" value="" style="group" parent="WIyWlLk6GJQsqaUBKTNV-1" vertex="1" connectable="0">
          <mxGeometry x="630" y="70" width="40" height="40" as="geometry" />
        </mxCell>
        <mxCell id="ZCOnZHZR5LrN24FwnGlQ-44" value="" style="ellipse;whiteSpace=wrap;html=1;aspect=fixed;" parent="ZCOnZHZR5LrN24FwnGlQ-43" vertex="1">
          <mxGeometry width="40" height="40" as="geometry" />
        </mxCell>
        <mxCell id="ZCOnZHZR5LrN24FwnGlQ-45" value="" style="ellipse;whiteSpace=wrap;html=1;aspect=fixed;" parent="ZCOnZHZR5LrN24FwnGlQ-43" vertex="1">
          <mxGeometry x="13.333333333333332" y="13.333333333333332" width="13.333333333333332" height="13.333333333333332" as="geometry" />
        </mxCell>
        <mxCell id="ZCOnZHZR5LrN24FwnGlQ-52" style="edgeStyle=orthogonalEdgeStyle;rounded=0;orthogonalLoop=1;jettySize=auto;html=1;entryX=0.5;entryY=0;entryDx=0;entryDy=0;" parent="WIyWlLk6GJQsqaUBKTNV-1" source="ZCOnZHZR5LrN24FwnGlQ-49" target="ZCOnZHZR5LrN24FwnGlQ-51" edge="1">
          <mxGeometry relative="1" as="geometry" />
        </mxCell>
        <mxCell id="ZCOnZHZR5LrN24FwnGlQ-49" value="open COM port" style="rounded=1;whiteSpace=wrap;html=1;" parent="WIyWlLk6GJQsqaUBKTNV-1" vertex="1">
          <mxGeometry x="590" y="160" width="120" height="60" as="geometry" />
        </mxCell>
        <mxCell id="ZCOnZHZR5LrN24FwnGlQ-50" style="edgeStyle=orthogonalEdgeStyle;rounded=0;orthogonalLoop=1;jettySize=auto;html=1;entryX=0.5;entryY=0;entryDx=0;entryDy=0;" parent="WIyWlLk6GJQsqaUBKTNV-1" source="ZCOnZHZR5LrN24FwnGlQ-44" target="ZCOnZHZR5LrN24FwnGlQ-49" edge="1">
          <mxGeometry relative="1" as="geometry" />
        </mxCell>
        <mxCell id="ZCOnZHZR5LrN24FwnGlQ-54" style="edgeStyle=orthogonalEdgeStyle;rounded=0;orthogonalLoop=1;jettySize=auto;html=1;" parent="WIyWlLk6GJQsqaUBKTNV-1" source="ZCOnZHZR5LrN24FwnGlQ-51" target="ZCOnZHZR5LrN24FwnGlQ-53" edge="1">
          <mxGeometry relative="1" as="geometry" />
        </mxCell>
        <mxCell id="ZCOnZHZR5LrN24FwnGlQ-51" value="Feed flight to the flight computer connected on selected port" style="rounded=1;whiteSpace=wrap;html=1;" parent="WIyWlLk6GJQsqaUBKTNV-1" vertex="1">
          <mxGeometry x="590" y="270" width="120" height="60" as="geometry" />
        </mxCell>
        <mxCell id="ZCOnZHZR5LrN24FwnGlQ-53" value="Read flight computer COM port to see flight computer output" style="rounded=1;whiteSpace=wrap;html=1;" parent="WIyWlLk6GJQsqaUBKTNV-1" vertex="1">
          <mxGeometry x="590" y="400" width="120" height="60" as="geometry" />
        </mxCell>
        <mxCell id="ZCOnZHZR5LrN24FwnGlQ-55" value="NAFCSE Conceptual Design" style="text;strokeColor=none;fillColor=none;html=1;fontSize=24;fontStyle=1;verticalAlign=middle;align=center;" parent="WIyWlLk6GJQsqaUBKTNV-1" vertex="1">
          <mxGeometry x="390" y="10" width="100" height="40" as="geometry" />
        </mxCell>
        <mxCell id="ZCOnZHZR5LrN24FwnGlQ-56" value="#1" style="text;html=1;align=center;verticalAlign=middle;resizable=0;points=[];autosize=1;strokeColor=none;fillColor=none;" parent="WIyWlLk6GJQsqaUBKTNV-1" vertex="1">
          <mxGeometry x="414" y="40" width="40" height="30" as="geometry" />
        </mxCell>
        <mxCell id="ZCOnZHZR5LrN24FwnGlQ-57" value="Graphing Sub-system" style="text;strokeColor=none;fillColor=none;html=1;fontSize=24;fontStyle=1;verticalAlign=middle;align=center;" parent="WIyWlLk6GJQsqaUBKTNV-1" vertex="1">
          <mxGeometry x="350" y="1190" width="100" height="40" as="geometry" />
        </mxCell>
        <mxCell id="ZCOnZHZR5LrN24FwnGlQ-61" style="edgeStyle=orthogonalEdgeStyle;rounded=0;orthogonalLoop=1;jettySize=auto;html=1;" parent="WIyWlLk6GJQsqaUBKTNV-1" source="ZCOnZHZR5LrN24FwnGlQ-59" edge="1">
          <mxGeometry relative="1" as="geometry">
            <mxPoint x="350" y="1410" as="targetPoint" />
          </mxGeometry>
        </mxCell>
        <mxCell id="ZCOnZHZR5LrN24FwnGlQ-59" value="COM port available?" style="rhombus;whiteSpace=wrap;html=1;shadow=0;fontFamily=Helvetica;fontSize=12;align=center;strokeWidth=1;spacing=6;spacingTop=-4;" parent="WIyWlLk6GJQsqaUBKTNV-1" vertex="1">
          <mxGeometry x="300" y="1270" width="100" height="80" as="geometry" />
        </mxCell>
        <mxCell id="ZCOnZHZR5LrN24FwnGlQ-64" style="edgeStyle=orthogonalEdgeStyle;rounded=0;orthogonalLoop=1;jettySize=auto;html=1;entryX=0.5;entryY=0;entryDx=0;entryDy=0;" parent="WIyWlLk6GJQsqaUBKTNV-1" source="ZCOnZHZR5LrN24FwnGlQ-62" target="ZCOnZHZR5LrN24FwnGlQ-63" edge="1">
          <mxGeometry relative="1" as="geometry" />
        </mxCell>
        <mxCell id="ZCOnZHZR5LrN24FwnGlQ-66" style="edgeStyle=orthogonalEdgeStyle;rounded=0;orthogonalLoop=1;jettySize=auto;html=1;" parent="WIyWlLk6GJQsqaUBKTNV-1" source="ZCOnZHZR5LrN24FwnGlQ-62" target="ZCOnZHZR5LrN24FwnGlQ-65" edge="1">
          <mxGeometry relative="1" as="geometry" />
        </mxCell>
        <mxCell id="ZCOnZHZR5LrN24FwnGlQ-68" style="edgeStyle=orthogonalEdgeStyle;rounded=0;orthogonalLoop=1;jettySize=auto;html=1;entryX=0.5;entryY=0;entryDx=0;entryDy=0;" parent="WIyWlLk6GJQsqaUBKTNV-1" source="ZCOnZHZR5LrN24FwnGlQ-62" target="ZCOnZHZR5LrN24FwnGlQ-67" edge="1">
          <mxGeometry relative="1" as="geometry" />
        </mxCell>
        <mxCell id="ZCOnZHZR5LrN24FwnGlQ-62" value="split UART string" style="rounded=1;whiteSpace=wrap;html=1;" parent="WIyWlLk6GJQsqaUBKTNV-1" vertex="1">
          <mxGeometry x="290" y="1410" width="120" height="60" as="geometry" />
        </mxCell>
        <mxCell id="ZCOnZHZR5LrN24FwnGlQ-63" value="update acceleration plot (x, y, z) (m/s^2)" style="rounded=1;whiteSpace=wrap;html=1;" parent="WIyWlLk6GJQsqaUBKTNV-1" vertex="1">
          <mxGeometry x="290" y="1520" width="120" height="60" as="geometry" />
        </mxCell>
        <mxCell id="ZCOnZHZR5LrN24FwnGlQ-65" value="update gyro plot (x, y, z) (deg/s)" style="rounded=1;whiteSpace=wrap;html=1;" parent="WIyWlLk6GJQsqaUBKTNV-1" vertex="1">
          <mxGeometry x="480" y="1520" width="120" height="60" as="geometry" />
        </mxCell>
        <mxCell id="ZCOnZHZR5LrN24FwnGlQ-67" value="update state machine labels" style="rounded=1;whiteSpace=wrap;html=1;" parent="WIyWlLk6GJQsqaUBKTNV-1" vertex="1">
          <mxGeometry x="660" y="1520" width="120" height="60" as="geometry" />
        </mxCell>
        <mxCell id="ZCOnZHZR5LrN24FwnGlQ-83" value="&lt;ol&gt;&lt;li style=&quot;border-color: var(--border-color);&quot;&gt;STATE&lt;/li&gt;&lt;li style=&quot;border-color: var(--border-color);&quot;&gt;&lt;span style=&quot;background-color: initial;&quot;&gt;ACC_X&lt;/span&gt;&lt;/li&gt;&lt;li style=&quot;border-color: var(--border-color);&quot;&gt;ACC_Y&lt;/li&gt;&lt;li style=&quot;border-color: var(--border-color);&quot;&gt;ACC_Z&lt;/li&gt;&lt;li style=&quot;border-color: var(--border-color);&quot;&gt;GYRO_X&lt;/li&gt;&lt;li style=&quot;border-color: var(--border-color);&quot;&gt;GYRO_Y&lt;/li&gt;&lt;li style=&quot;border-color: var(--border-color);&quot;&gt;GYRO_X&lt;/li&gt;&lt;li style=&quot;border-color: var(--border-color);&quot;&gt;ATM_PRESSURE&lt;/li&gt;&lt;li style=&quot;border-color: var(--border-color);&quot;&gt;ALTITUDE&lt;/li&gt;&lt;li style=&quot;border-color: var(--border-color);&quot;&gt;TEMP&lt;/li&gt;&lt;li style=&quot;border-color: var(--border-color);&quot;&gt;VEL&lt;/li&gt;&lt;li style=&quot;border-color: var(--border-color);&quot;&gt;LAT&lt;/li&gt;&lt;li style=&quot;border-color: var(--border-color);&quot;&gt;LONG&lt;/li&gt;&lt;li style=&quot;border-color: var(--border-color);&quot;&gt;MODE&lt;/li&gt;&lt;/ol&gt;" style="text;strokeColor=none;fillColor=none;html=1;whiteSpace=wrap;verticalAlign=middle;overflow=hidden;" parent="WIyWlLk6GJQsqaUBKTNV-1" vertex="1">
          <mxGeometry x="110" y="1260" width="150" height="350" as="geometry" />
        </mxCell>
        <mxCell id="ZCOnZHZR5LrN24FwnGlQ-84" value="&lt;b&gt;&lt;font style=&quot;font-size: 14px;&quot;&gt;Data points&lt;/font&gt;&lt;/b&gt;" style="text;html=1;align=center;verticalAlign=middle;resizable=0;points=[];autosize=1;strokeColor=none;fillColor=none;" parent="WIyWlLk6GJQsqaUBKTNV-1" vertex="1">
          <mxGeometry x="110" y="1300" width="100" height="30" as="geometry" />
        </mxCell>
        <mxCell id="NxdBke05NT6qZF3fEWRk-0" value="" style="rounded=1;whiteSpace=wrap;html=1;" vertex="1" parent="WIyWlLk6GJQsqaUBKTNV-1">
          <mxGeometry x="1160" y="150" width="120" height="60" as="geometry" />
        </mxCell>
      </root>
    </mxGraphModel>
  </diagram>
</mxfile>
